<?xml version="1.0" standalone="no"?>
<!DOCTYPE svg PUBLIC "-//W3C//DTD SVG 20010904//EN"
 "http://www.w3.org/TR/2001/REC-SVG-20010904/DTD/svg10.dtd">
<svg version="1.0" xmlns="http://www.w3.org/2000/svg"
 width="1009.000000pt" height="1009.000000pt" viewBox="0 0 1009.000000 1009.000000"
 preserveAspectRatio="xMidYMid meet">
<metadata>
Created by potrace 1.14, written by Peter Selinger 2001-2017
</metadata>
<g transform="translate(0.000000,1009.000000) scale(0.100000,-0.100000)"
fill="#000000" stroke="none">
<path d="M3170 8072 c-36 -16 -63 -39 -82 -70 -19 -31 -20 -49 -21 -253 l-1
-219 -63 3 c-35 1 -63 -1 -63 -4 0 -4 -16 -3 -35 1 -19 4 -35 4 -35 0 0 -5
-13 -5 -29 0 -15 4 -34 4 -42 0 -7 -5 -20 -5 -28 -1 -9 5 -25 5 -36 1 -11 -4
-29 -4 -41 0 -11 5 -27 4 -34 0 -8 -5 -18 -6 -23 -3 -8 5 -111 7 -132 3 -5 -1
-13 -1 -17 0 -18 4 -136 3 -144 -2 -5 -3 -18 -2 -29 2 -11 4 -29 4 -40 0 -11
-4 -29 -4 -40 0 -11 4 -30 4 -41 -1 -12 -4 -25 -5 -28 -2 -7 8 -135 8 -142 0
-3 -3 -16 -2 -28 2 -11 5 -30 5 -41 1 -11 -4 -29 -4 -40 0 -11 4 -29 4 -40 0
-11 -4 -24 -5 -29 -2 -11 6 -146 9 -146 2 0 -3 -15 -4 -32 -4 -18 1 -46 -5
-63 -14 -31 -16 -74 -60 -76 -77 0 -5 -3 -19 -5 -30 -8 -37 -9 -315 -1 -315 5
0 5 -5 2 -10 -6 -10 -10 -124 -5 -145 8 -35 13 -34 -700 -35 -384 0 -710 -4
-722 -9 -36 -14 -87 -71 -93 -105 -3 -17 -4 -1077 -3 -2356 l3 -2326 25 -31
c54 -69 -256 -63 3480 -63 2184 0 3388 3 3405 10 24 9 84 63 86 78 0 4 3 16 5
27 3 11 6 130 7 265 l2 245 705 5 c761 5 729 3 777 59 31 35 34 56 36 286 l2
200 665 2 c366 1 693 4 727 6 69 5 107 27 135 80 16 30 17 184 18 2354 0 2608
7 2380 -75 2428 l-42 25 -3389 -1 c-1864 0 -3396 -3 -3404 -7z"/>
</g>
</svg>
